<svg xmlns="http://www.w3.org/2000/svg" width="24" height="24" viewBox="0 0 24 24">
    <g fill="none" fill-rule="evenodd">
        <path d="M0 0h24v24H0z"/>
        <path fill="#02ECB8" d="M8.819 8.041H19.95c.416 0 .755-.448.755-1s-.338-1-.755-1H8.819c-.417 0-.755.448-.755 1s.338 1 .755 1zM19.677 11.041H4.505c-.567 0-1.028.448-1.028 1 0 .553.46 1 1.028 1h15.172c.568 0 1.028-.447 1.028-1 0-.552-.46-1-1.028-1zM19.95 15.959H8.82c-.417 0-.755.448-.755 1s.338 1 .755 1H19.95c.416 0 .755-.448.755-1s-.339-1-.756-1z"/>
    </g>
</svg>
